<svg t="1585726546964" class="icon" viewBox="0 0 1075 1024" version="1.1" xmlns="http://www.w3.org/2000/svg" p-id="2251" width="16" height="16"><path d="M179.2 102.4h768a51.2 51.2 0 0 1 51.2 51.2v716.8a51.2 51.2 0 0 1-51.2 51.2h-768a51.2 51.2 0 0 1-51.2-51.2V153.6a51.2 51.2 0 0 1 51.2-51.2zM204.8 153.6a25.6 25.6 0 0 0-25.6 25.6v665.6a25.6 25.6 0 0 0 25.6 25.6h716.8a25.6 25.6 0 0 0 25.6-25.6v-665.6A25.6 25.6 0 0 0 921.6 153.6H204.8z" p-id="2252"></path><path d="M697.344 417.536c-8.192-13.9776-24.3712-13.9776-32.4608 0l-110.7968 195.9424-67.584-95.1808c-8.0384-13.9776-21.5552-13.9776-29.696-2.7648l-121.5488 176.3328c-8.1408 13.9776-2.7136 22.3744 10.752 22.3744h480.9728c16.2304 0 21.6576-11.1616 10.8032-22.3744L697.344 417.536z" p-id="2253"></path><path d="M293.888 342.2208a56.1664 51.2 0 1 0 112.3328 0 56.1664 51.2 0 1 0-112.3328 0Z" p-id="2254"></path></svg>