<?xml version="1.0" standalone="no"?><!DOCTYPE svg PUBLIC "-//W3C//DTD SVG 1.1//EN" "http://www.w3.org/Graphics/SVG/1.1/DTD/svg11.dtd"><svg t="1583342032057" class="icon" viewBox="0 0 1024 1024" version="1.1" xmlns="http://www.w3.org/2000/svg" p-id="2594" xmlns:xlink="http://www.w3.org/1999/xlink" width="200" height="200"><defs><style type="text/css"></style></defs><path d="M712.454919 673.321514l100.213622 100.185945a27.675676 27.675676 0 1 1-39.133406 39.161082l-100.213621-100.213622A275.622054 275.622054 0 0 1 498.162162 774.918919c-152.852757 0-276.756757-123.904-276.756757-276.756757S345.309405 221.405405 498.162162 221.405405s276.756757 123.904 276.756757 276.756757a275.622054 275.622054 0 0 1-62.464 175.159352zM470.486486 470.486486v-55.351351a27.675676 27.675676 0 0 1 55.351352 0v55.351351h55.351351a27.675676 27.675676 0 0 1 0 55.351352h-55.351351v55.351351a27.675676 27.675676 0 0 1-55.351352 0v-55.351351h-55.351351a27.675676 27.675676 0 0 1 0-55.351352h55.351351z m27.675676 249.081082a221.405405 221.405405 0 1 0 0-442.810811 221.405405 221.405405 0 0 0 0 442.810811z" p-id="2595"></path></svg>