<svg t="1585728622047" class="icon" viewBox="0 0 1024 1024" version="1.1" xmlns="http://www.w3.org/2000/svg" p-id="6607" width="16" height="16"><path d="M398.6432 585.50272c0.36864 41.13408-32.75776 74.77248-73.94816 75.02336-41.16992 0.32768-74.68032-32.76288-74.90048-73.89696-0.36352-41.14944 32.74752-74.66496 73.80992-75.04384 41.18528-0.27136 74.82368 32.86016 75.03872 73.91744z m-36.41344-148.4544c-41.1392 0.29184-74.79296-32.78848-75.05408-74.0096-0.32256-41.0624 32.68096-74.61376 73.88672-74.88 41.04704-0.37888 74.79296 32.66048 74.93632 73.82528 0.4352 41.21088-32.768 74.68544-73.76896 75.06432z m297.216-149.48864c0.14336 41.0624-32.80384 74.79296-73.93792 75.06432-41.1648 0.34304-74.77248-32.76288-75.02336-73.8816-0.39936-41.18528 32.6912-74.7008 73.93792-75.02848 40.98048-0.23552 74.65984 32.80384 75.02336 73.84576zM212.54656 877.72672c170.82368 14.14144 109.65504-167.296 267.70432-168.97024l68.4544 57.09312c17.0496 206.21312-235.19232 252.25216-336.15872 111.87712z m523.81184-264.98048c53.13536-83.37408 217.73312-363.008 217.73312-363.008 13.09696-23.18336-16-47.40608-36.33152-30.29504 0 0-244.7616 212.79232-316.94848 280.23808-57.0624 53.33504-57.2928 77.696-75.776 165.61152l62.53056 52.1216c82.92864-34.048 106.79296-38.69184 148.79232-104.66816z m-470.05696 179.00544c-77.60384-67.7888-127.36-166.86592-128.21504-277.3504-1.6384-205.184 164.096-373.51424 369.43872-375.18848 142.93504-0.76288 241.3056 70.9376 241.92512 128.3584 22.58944-19.80416 43.71456-38.27712 61.93664-54.20544-37.6064-82.77504-155.72992-150.63552-304.47616-148.65408-246.70208 2.01728-445.27104 203.51488-443.30496 450.29376 0.85504 108.42624 40.31488 207.42656 105.12384 284.3136 35.67104 18.32448 79.05792 12.24704 97.57184-7.56736z m476.5696-70.99904c39.424 73.39008-50.33472 125.47072-132.01408 148.66944-11.3408 33.97632-29.89568 64.08704-51.16928 86.05696 195.69664-21.9648 337.4592-160.27648 233.33376-293.78048-17.09056 25.49248-33.38752 44.59008-50.1504 59.05408z" p-id="6608"></path></svg>