<svg t="1585726138592" class="icon" viewBox="0 0 1024 1024" version="1.1" xmlns="http://www.w3.org/2000/svg" p-id="2117" width="16" height="16"><path d="M787.123892 342.375784c-32.242162 36.808649-191.958486 276.729081-238.564324 278.666378-34.483892 1.439135-122.298811-54.714811-105.278271-81.53254 40.600216-63.903135 244.237838-213.628541 280.354595-243.462919 64.207568-53.081946 120.527568-84.687568 132.760216-71.763027 7.638486 7.195676-12.675459 53.552432-69.272216 118.092108z m-278.970811 363.104865C435.227676 880.363243 166.054054 765.647568 166.054054 765.647568s114.300541 13.533405 114.300541-86.514163c0-96.975568 91.219027-99.632432 116.431567-97.805837 56.264649 4.040649 103.645405 69.908757 110.564324 86.348108 4.870919 11.623784 3.680865 30.858378 0.830271 37.749621z" p-id="2118"></path></svg>