<?xml version="1.0" standalone="no"?><!DOCTYPE svg PUBLIC "-//W3C//DTD SVG 1.1//EN" "http://www.w3.org/Graphics/SVG/1.1/DTD/svg11.dtd"><svg t="1583342043747" class="icon" viewBox="0 0 1024 1024" version="1.1" xmlns="http://www.w3.org/2000/svg" p-id="2713" xmlns:xlink="http://www.w3.org/1999/xlink" width="200" height="200"><defs><style type="text/css"></style></defs><path d="M128 102.4h768a51.2 51.2 0 0 1 51.2 51.2v716.8a51.2 51.2 0 0 1-51.2 51.2h-768a51.2 51.2 0 0 1-51.2-51.2V153.6a51.2 51.2 0 0 1 51.2-51.2zM153.6 153.6a25.6 25.6 0 0 0-25.6 25.6v665.6a25.6 25.6 0 0 0 25.6 25.6h716.8a25.6 25.6 0 0 0 25.6-25.6v-665.6A25.6 25.6 0 0 0 870.4 153.6H153.6z" p-id="2714"></path><path d="M204.8 256m10.24 0l235.52 0q10.24 0 10.24 10.24l0 184.32q0 10.24-10.24 10.24l-235.52 0q-10.24 0-10.24-10.24l0-184.32q0-10.24 10.24-10.24Z" p-id="2715"></path><path d="M204.8 512m10.24 0l235.52 0q10.24 0 10.24 10.24l0 235.52q0 10.24-10.24 10.24l-235.52 0q-10.24 0-10.24-10.24l0-235.52q0-10.24 10.24-10.24Z" p-id="2716"></path><path d="M512 256m10.24 0l286.72 0q10.24 0 10.24 10.24l0 491.52q0 10.24-10.24 10.24l-286.72 0q-10.24 0-10.24-10.24l0-491.52q0-10.24 10.24-10.24Z" p-id="2717"></path></svg>