<?xml version="1.0" standalone="no"?><!DOCTYPE svg PUBLIC "-//W3C//DTD SVG 1.1//EN" "http://www.w3.org/Graphics/SVG/1.1/DTD/svg11.dtd"><svg t="1583484149109" class="icon" viewBox="0 0 1024 1024" version="1.1" xmlns="http://www.w3.org/2000/svg" p-id="2201" xmlns:xlink="http://www.w3.org/1999/xlink" width="200" height="200"><defs><style type="text/css"></style></defs><path d="M522.295351 290.926703V763.848649c0 13.561081 5.618162 23.164541 16.826811 28.782702 11.208649 5.618162 30.111135 9.880216 56.679784 12.841514 6.503784 0 9.741838 4.704865 9.741838 14.169946 0 4.151351-0.581189 9.132973-1.771243 15.055567-18.902486-1.190054-38.828973-2.214054-59.77946-3.099675a1499.827892 1499.827892 0 0 0-126.643892 0c-21.559351 0.885622-41.79027 1.937297-60.665081 3.099675a78.792649 78.792649 0 0 1-1.771243-15.055567c0-8.275027 2.961297-13.007568 8.856216-14.169946 26.568649-3.542486 45.747892-7.970595 57.565405-13.284324 11.817514-5.31373 17.712432-14.751135 17.712433-28.339892V290.926703h-91.219027c-17.712432 0-32.629622 1.771243-44.723892 5.313729-12.09427 3.542486-22.583351 8.856216-31.439568 15.94119a96.588108 96.588108 0 0 0-23.026162 27.45427c-6.503784 11.208649-13.284324 24.216216-20.369297 38.967351a10.848865 10.848865 0 0 1-5.756541 6.199352 18.570378 18.570378 0 0 1-7.527783 1.771243 27.260541 27.260541 0 0 1-16.826811-5.31373c5.894919-21.254919 10.323027-40.12973 13.284324-56.679784 2.961297-16.522378 5.618162-30.249514 7.970595-41.181405a132.566486 132.566486 0 0 1 7.527784-25.240216c2.656865-5.894919 6.918919-8.856216 12.841513-8.856217 4.151351 0 10.04627 0.276757 17.712432 0.885622a11445.635459 11445.635459 0 0 0 50.480433 3.542487c8.856216 0.581189 17.131243 0.885622 24.797405 0.885621h295.797622c7.084973 0 15.055568-0.276757 23.911784-0.885621l26.568648-1.771244c8.856216-0.581189 16.965189-1.190054 24.354595-1.771243 7.389405-0.581189 13.422703-0.885622 18.155243-0.885622 5.894919 0 10.184649 3.099676 12.841514 9.299028 2.656865 6.199351 5.175351 14.917189 7.527784 26.125837 2.352432 11.208649 4.870919 25.101838 7.527783 41.624217 2.656865 16.522378 7.223351 34.843676 13.727135 54.90854a242.383568 242.383568 0 0 0-8.413405 3.542487 21.753081 21.753081 0 0 1-17.269622 0 10.710486 10.710486 0 0 1-6.199351-6.199352 398.474378 398.474378 0 0 0-19.483676-38.967351 100.435027 100.435027 0 0 0-22.583351-27.45427 85.683892 85.683892 0 0 0-30.996757-15.94119c-12.09427-3.542486-27.011459-5.31373-44.723892-5.313729h-91.219027z" p-id="2202"></path><path d="M774.918919 830.27027h138.378378v-138.378378z" p-id="2203"></path></svg>