<?xml version="1.0" standalone="no"?><!DOCTYPE svg PUBLIC "-//W3C//DTD SVG 1.1//EN" "http://www.w3.org/Graphics/SVG/1.1/DTD/svg11.dtd"><svg t="1585724196907" class="icon" viewBox="0 0 1051 1024" version="1.1" xmlns="http://www.w3.org/2000/svg" p-id="2117" xmlns:xlink="http://www.w3.org/1999/xlink" width="205.2734375" height="200"><defs><style type="text/css"></style></defs><path d="M586.730921 630.648856l-82.270842 79.257115a55.351351 55.351351 0 0 1-78.317771-1.526433l-172.545674-179.62989a55.351351 55.351351 0 0 1 1.506864-78.219923l77.2023-74.345131a27.675676 27.675676 0 0 1 0.391394-38.747923l195.696579-195.696579a55.351351 55.351351 0 0 1 78.278632 0l215.266237 215.266237a55.351351 55.351351 0 0 1 0 78.278632l-195.696579 195.69658a27.675676 27.675676 0 0 1-39.139316 0l-0.352254-0.352254z m-39.139316-39.139315L371.386405 415.30434l-57.926187 55.773526a27.675676 27.675676 0 0 0-0.802356 39.080606l134.032587 139.903485 0.039139 0.039139a27.675676 27.675676 0 0 0 39.139316 0.743647l61.703132-59.354772z m39.49157-391.040906a27.675676 27.675676 0 0 0-39.139316 0l-156.557263 156.557264 215.266237 215.266237 156.557264-156.557263a27.675676 27.675676 0 0 0 0-39.139316l-176.126922-176.126922z" p-id="2118"></path><path d="M208.303523 749.628197m27.675675 0l581.189189 0q27.675676 0 27.675676 27.675676l0 0q0 27.675676-27.675676 27.675676l-581.189189 0q-27.675676 0-27.675675-27.675676l0 0q0-27.675676 27.675675-27.675676Z" p-id="2119"></path></svg>