<svg t="1585726668872" class="icon" viewBox="0 0 1024 1024" version="1.1" xmlns="http://www.w3.org/2000/svg" p-id="2387" width="16" height="16"><path d="M870.4 512h-102.4V281.6a25.6 25.6 0 0 0-25.6-25.6h-460.8a25.6 25.6 0 0 0-25.6 25.6v460.8a25.6 25.6 0 0 0 25.6 25.6H460.8v102.4H179.2a25.6 25.6 0 0 1-25.6-25.6v-665.6a25.6 25.6 0 0 1 25.6-25.6h665.6a25.6 25.6 0 0 1 25.6 25.6V512z" p-id="2388"></path><path d="M726.8864 847.4624s237.312-13.056 187.9552-279.9104c0 0-2.9184-9.7792-7.8848 0 0 0-52.224 177.92-179.4048 133.4272v-55.808s-2.048-31.3856-27.136-10.752l-126.1056 121.6s-26.2656 16.3328 1.9968 37.888l127.232 123.1872s18.3808 15.0528 22.4256-9.8304v-59.8016h0.9216z" p-id="2389"></path></svg>